<?xml version="1.0" encoding="UTF-8" standalone="no"?>
<!DOCTYPE svg PUBLIC "-//W3C//DTD SVG 1.1//EN" "http://www.w3.org/Graphics/SVG/1.1/DTD/svg11.dtd">
<svg width="100%" height="100%" viewBox="0 0 32 32" version="1.1" xmlns="http://www.w3.org/2000/svg" xmlns:xlink="http://www.w3.org/1999/xlink" xml:space="preserve" xmlns:serif="http://www.serif.com/" style="fill-rule:evenodd;clip-rule:evenodd;stroke-linejoin:round;stroke-miterlimit:2;">
    <g transform="matrix(0.181818,0,0,0.181818,-7.50913,-17.8182)">
        <g id="Artboard1">
            <g>
                <g id="XMLID_19_">
                    <g>
                        <g>
                            <g>
                                <g>
                                    <clipPath id="_clip1">
                                        <path d="M176.8,137.4C176.4,135.2 174.4,133.8 172.2,134.1C171.4,134.2 170.6,134.6 170,135.2L149.2,156L132.9,124.9C131.9,122.9 129.5,122.2 127.5,123.2C126.8,123.6 126.2,124.2 125.8,124.9L116.9,141.9L94.5,100.1C93.5,98.2 91,97.4 89.1,98.5C88,99.1 87.2,100.2 87,101.4L65.3,240L123.2,272.5C126.8,274.5 131.3,274.5 134.9,272.5L193.3,240L176.8,137.4Z"/>
                                    </clipPath>
                                    <g clip-path="url(#_clip1)">
                                        <path d="M65.3,240L87,101.4C87.3,99.2 89.4,97.7 91.6,98.1C92.8,98.3 93.9,99.1 94.5,100.2L116.9,142L125.8,125C126.8,123 129.2,122.3 131.2,123.3C131.9,123.7 132.5,124.3 132.9,125L193.3,240L65.3,240Z" style="fill:rgb(255,160,0);fill-rule:nonzero;"/>
                                        <path d="M139.3,99L33.3,90L33.3,282L65.3,240L139.3,99Z" style="fill:url(#_Linear2);fill-rule:nonzero;"/>
                                        <path d="M140.2,186L116.9,141.9L65.3,240L140.2,186Z" style="fill:rgb(245,124,0);fill-rule:nonzero;"/>
                                        <rect x="33.3" y="90" width="192" height="192" style="fill:url(#_Linear3);"/>
                                        <path d="M193.3,240L176.7,137.3C176.3,135.1 174.3,133.7 172.1,134C171.3,134.1 170.5,134.5 169.9,135.1L65.3,240L123.2,272.5C126.8,274.5 131.3,274.5 134.9,272.5L193.3,240Z" style="fill:rgb(255,202,40);fill-rule:nonzero;"/>
                                        <path d="M176.8,137.4C176.4,135.2 174.4,133.8 172.2,134.1C171.4,134.2 170.6,134.6 170,135.2L149.2,156L132.9,124.9C131.9,122.9 129.5,122.2 127.5,123.2C126.8,123.6 126.2,124.2 125.8,124.9L116.9,141.9L94.5,100.1C93.5,98.2 91,97.4 89.1,98.5C88,99.1 87.2,100.2 87,101.4L65.3,240L65.2,240L65.3,240.1L65.9,240.4L149.2,157L170,136.2C171.6,134.6 174.1,134.6 175.7,136.2C176.3,136.8 176.7,137.5 176.8,138.4L193.2,240.1L193.4,240L176.8,137.4ZM65.5,239.8L87,102.4C87.3,100.2 89.4,98.7 91.6,99.1C92.8,99.3 93.9,100.1 94.5,101.2L116.9,143L125.8,126C126.8,124 129.2,123.3 131.2,124.3C131.9,124.7 132.5,125.3 132.9,126L148.9,156.4L65.5,239.8Z" style="fill:white;fill-opacity:0.2;fill-rule:nonzero;"/>
                                        <path d="M134.9,271.5C131.3,273.5 126.8,273.5 123.2,271.5L65.4,239.1L65.3,240L123.2,272.5C126.8,274.5 131.3,274.5 134.9,272.5L193.3,240L193.2,239.1L134.9,271.5Z" style="fill:rgb(165,39,20);fill-opacity:0.2;fill-rule:nonzero;"/>
                                        <path d="M176.8,137.4C176.4,135.2 174.4,133.8 172.2,134.1C171.4,134.2 170.6,134.6 170,135.2L149.2,156L132.9,124.9C131.9,122.9 129.5,122.2 127.5,123.2C126.8,123.6 126.2,124.2 125.8,124.9L116.9,141.9L94.5,100.1C93.5,98.2 91,97.4 89.1,98.5C88,99.1 87.2,100.2 87,101.4L65.3,240L123.2,272.5C126.8,274.5 131.3,274.5 134.9,272.5L193.3,240L176.8,137.4Z" style="fill:url(#_Linear4);fill-rule:nonzero;"/>
                                    </g>
                                </g>
                            </g>
                        </g>
                    </g>
                </g>
            </g>
        </g>
    </g>
    <defs>
        <linearGradient id="_Linear2" x1="0" y1="0" x2="1" y2="0" gradientUnits="userSpaceOnUse" gradientTransform="matrix(-8,-4.18,4.18,-8,90.2419,192.555)"><stop offset="0" style="stop-color:rgb(165,39,20);stop-opacity:0.12"/><stop offset="0.8" style="stop-color:rgb(165,39,20);stop-opacity:0"/><stop offset="1" style="stop-color:rgb(165,39,20);stop-opacity:0"/></linearGradient>
        <linearGradient id="_Linear3" x1="0" y1="0" x2="1" y2="0" gradientUnits="userSpaceOnUse" gradientTransform="matrix(-3.58,-3.58,3.58,-3.58,124.241,180.917)"><stop offset="0" style="stop-color:rgb(165,39,20);stop-opacity:0.16"/><stop offset="0.5" style="stop-color:rgb(165,39,20);stop-opacity:0.04"/><stop offset="1" style="stop-color:rgb(165,39,20);stop-opacity:0"/></linearGradient>
        <linearGradient id="_Linear4" x1="0" y1="0" x2="1" y2="0" gradientUnits="userSpaceOnUse" gradientTransform="matrix(133.687,133.687,-133.687,133.687,61.8538,128.973)"><stop offset="0" style="stop-color:white;stop-opacity:0.1"/><stop offset="1" style="stop-color:white;stop-opacity:0"/></linearGradient>
    </defs>
</svg>
